<svg xmlns="http://www.w3.org/2000/svg" width="640" height="360" viewBox="0 0 640 360" role="img">
    <rect width="640" height="360" fill="#c9e7de"/>
    <path d="M0 250 C100 210 210 270 330 220 C470 160 560 202 640 170 L640 360 L0 360Z" fill="#7fab79"/>
    <g fill="#48a868"><circle cx="110" cy="130" r="12"/><circle cx="180" cy="130" r="15"/><circle cx="250" cy="130" r="18"/><circle cx="320" cy="130" r="12"/><circle cx="390" cy="130" r="15"/><circle cx="110" cy="172" r="18"/><circle cx="180" cy="172" r="12"/><circle cx="250" cy="172" r="15"/><circle cx="320" cy="172" r="18"/><circle cx="390" cy="172" r="12"/><circle cx="110" cy="214" r="15"/><circle cx="180" cy="214" r="18"/><circle cx="250" cy="214" r="12"/><circle cx="320" cy="214" r="15"/><circle cx="390" cy="214" r="18"/><circle cx="110" cy="256" r="12"/><circle cx="180" cy="256" r="15"/><circle cx="250" cy="256" r="18"/><circle cx="320" cy="256" r="12"/><circle cx="390" cy="256" r="15"/></g>
    <circle cx="510" cy="80" r="44" fill="#e7c36f" opacity="0.9"/>
    <text x="34" y="54" font-size="28" font-family="Microsoft YaHei, serif" font-weight="800" fill="#17231d">节气影响农田</text>
    <text x="36" y="316" font-size="20" font-family="Microsoft YaHei, serif" fill="#286f58">谷雨：木系作物与精怪工作效率上升</text>
    </svg>