<svg xmlns="http://www.w3.org/2000/svg" width="1920" height="1080" viewBox="0 0 1920 1080" role="img">
    <defs>
      <linearGradient id="shotSky" x1="0" x2="1" y1="0" y2="1">
        <stop offset="0" stop-color="#f6f0cf"/>
        <stop offset="1" stop-color="#f7f0d8"/>
      </linearGradient>
      <filter id="shotShadow">
        <feDropShadow dx="0" dy="10" stdDeviation="16" flood-color="#17231d" flood-opacity="0.28"/>
      </filter>
    </defs>
    <rect width="1920" height="1080" fill="url(#shotSky)"/>
    <circle cx="1574.3999999999999" cy="194.4" r="140.4" fill="#8b6a48" opacity="0.4"/>
    <path d="M0 756 C345.59999999999997 594 652.8000000000001 896.4 960 712.8000000000001 C1305.6000000000001 507.59999999999997 1497.6000000000001 691.2 1920 561.6 L1920 1080 L0 1080Z" fill="#b2875c"/>
    
    <rect x="230.39999999999998" y="291.6" width="1267.2" height="518.4" rx="34.559999999999995" fill="#8b6a48" stroke="#583f30" stroke-width="23.04" filter="url(#shotShadow)"/><rect x="345.59999999999997" y="421.2" width="422.4" height="270" fill="#fff8e8"/><rect x="940.8" y="421.2" width="422.4" height="270" fill="#fff8e8"/>
    
    
    
    <g filter="url(#shotShadow)">
      <ellipse cx="1305.6000000000001" cy="626.4" rx="153.6" ry="140.4" fill="#fff0c8" stroke="#826246" stroke-width="15.36"/>
      <path d="M1248 507.59999999999997 C1267.2 410.4 1363.1999999999998 421.2 1382.3999999999999 507.59999999999997" fill="none" stroke="#286f58" stroke-width="26.88" stroke-linecap="round"/>
      <circle cx="1267.2" cy="604.8000000000001" r="11.52" fill="#17231d"/>
      <circle cx="1344" cy="604.8000000000001" r="11.52" fill="#17231d"/>
    </g>
    <rect x="48" y="59.4" width="921.5999999999999" height="183.60000000000002" rx="34.559999999999995" fill="#fff8e8" opacity="0.82"/>
    <text x="86.39999999999999" y="129.6" font-size="72.96" font-family="Microsoft YaHei, SimSun, serif" font-weight="900" fill="#17231d">旧铺开门经营</text>
    <text x="86.39999999999999" y="192.23999999999998" font-size="40.32" font-family="Microsoft YaHei, SimSun, serif" fill="#286f58">定价、陈列、顾客反馈串起前店后厂</text>
  </svg>